<svg width="60" height="60" viewBox="0 0 60 60" fill="none" xmlns="http://www.w3.org/2000/svg">
<g clip-path="url(#clip0_81_104)">
<mask id="mask0_81_104" style="mask-type:luminance" maskUnits="userSpaceOnUse" x="0" y="0" width="60" height="60">
<path d="M0 0H60V60H0V0Z" fill="white"/>
</mask>
<g mask="url(#mask0_81_104)">
<path d="M30 31.875C30 29.3886 30.9877 27.004 32.7459 25.2459C34.504 23.4877 36.8886 22.5 39.375 22.5C41.8614 22.5 44.246 23.4877 46.0041 25.2459C47.7623 27.004 48.75 29.3886 48.75 31.875C48.75 34.3614 47.7623 36.746 46.0041 38.5041C44.246 40.2623 41.8614 41.25 39.375 41.25C36.8886 41.25 34.504 40.2623 32.7459 38.5041C30.9877 36.746 30 34.3614 30 31.875V31.875Z" fill="#1ABCFE"/>
<path d="M11.25 50.625C11.25 48.1386 12.2377 45.754 13.9959 43.9959C15.754 42.2377 18.1386 41.25 20.625 41.25H30V50.625C30 53.1114 29.0123 55.496 27.2541 57.2541C25.496 59.0123 23.1114 60 20.625 60C18.1386 60 15.754 59.0123 13.9959 57.2541C12.2377 55.496 11.25 53.1114 11.25 50.625V50.625Z" fill="#0ACF83"/>
<path d="M30 3.75V22.5H39.375C41.8614 22.5 44.246 21.5123 46.0041 19.7541C47.7623 17.996 48.75 15.6114 48.75 13.125C48.75 10.6386 47.7623 8.25403 46.0041 6.49587C44.246 4.73772 41.8614 3.75 39.375 3.75L30 3.75Z" fill="#FF7262"/>
<path d="M11.25 13.125C11.25 15.6114 12.2377 17.996 13.9959 19.7541C15.754 21.5123 18.1386 22.5 20.625 22.5H30V3.75H20.625C18.1386 3.75 15.754 4.73772 13.9959 6.49587C12.2377 8.25403 11.25 10.6386 11.25 13.125V13.125Z" fill="#F24E1E"/>
<path d="M11.25 31.875C11.25 34.3614 12.2377 36.746 13.9959 38.5041C15.754 40.2623 18.1386 41.25 20.625 41.25H30V22.5H20.625C18.1386 22.5 15.754 23.4877 13.9959 25.2459C12.2377 27.004 11.25 29.3886 11.25 31.875V31.875Z" fill="#A259FF"/>
</g>
</g>
<defs>
<clipPath id="clip0_81_104">
<rect width="60" height="60" fill="white"/>
</clipPath>
</defs>
</svg>
