<svg width="124" height="124" viewBox="0 0 124 124" fill="none" xmlns="http://www.w3.org/2000/svg">
<path d="M0 9.09999C0 3.99999 4.1 0 9.1 0H114.3C119.4 0 123.4 4.09999 123.4 9.09999V114.3C123.4 119.4 119.3 123.4 114.3 123.4H9.1C4 123.4 0 119.3 0 114.3V9.09999Z" fill="#0B63CE"/>
<path d="M18.2998 20.5998C18.2998 19.2998 19.2998 18.2998 20.5998 18.2998H34.2998C35.5998 18.2998 36.5998 19.2998 36.5998 20.5998V34.2998C36.5998 35.5998 35.5998 36.5998 34.2998 36.5998H20.5998C19.2998 36.5998 18.2998 35.5998 18.2998 34.2998V20.5998Z" fill="white"/>
<path d="M43.3996 18.2998C42.0996 18.2998 41.0996 19.2998 41.0996 20.5998V34.2998C41.0996 35.5998 42.0996 36.5998 43.3996 36.5998H57.0996C58.3996 36.5998 59.3996 35.5998 59.3996 34.2998V20.5998C59.3996 19.2998 58.3996 18.2998 57.0996 18.2998H43.3996Z" fill="white"/>
<path d="M64 20.5998C64 19.2998 65 18.2998 66.3 18.2998H80C81.3 18.2998 82.3 19.2998 82.3 20.5998V34.2998C82.3 35.5998 81.3 36.5998 80 36.5998H66.3C65 36.5998 64 35.5998 64 34.2998V20.5998Z" fill="white"/>
<path d="M20.5998 41.2002C19.2998 41.2002 18.2998 42.2002 18.2998 43.5002V57.2002C18.2998 58.5002 19.2998 59.5002 20.5998 59.5002H34.2998C35.5998 59.5002 36.5998 58.5002 36.5998 57.2002V43.5002C36.5998 42.2002 35.5998 41.2002 34.2998 41.2002H20.5998Z" fill="white"/>
<path d="M41.0996 43.4006C41.0996 42.1006 42.0996 41.1006 43.3996 41.1006H57.0996C58.3996 41.1006 59.3996 42.1006 59.3996 43.4006V57.2006C59.3996 58.5006 58.3996 59.5006 57.0996 59.5006H43.3996C42.0996 59.5006 41.0996 58.5006 41.0996 57.2006V43.4006Z" fill="white"/>
<path d="M89.2004 41.2002C87.9004 41.2002 86.9004 42.2002 86.9004 43.5002V57.2002C86.9004 58.5002 87.9004 59.5002 89.2004 59.5002H102.9C104.2 59.5002 105.2 58.5002 105.2 57.2002V43.5002C105.2 42.2002 104.2 41.2002 102.9 41.2002H89.2004Z" fill="white"/>
<path d="M18.2998 66.3C18.2998 65 19.2998 64 20.5998 64H34.2998C35.5998 64 36.5998 65 36.5998 66.3V80C36.5998 81.3 35.5998 82.3 34.2998 82.3H20.5998C19.2998 82.3 18.2998 81.3 18.2998 80V66.3Z" fill="white"/>
<path d="M66.3 64C65 64 64 65 64 66.3V80C64 81.3 65 82.3 66.3 82.3H80C81.3 82.3 82.3 81.3 82.3 80V66.3C82.3 65 81.3 64 80 64H66.3Z" fill="white"/>
<path d="M86.9004 66.3C86.9004 65 87.9004 64 89.2004 64H102.9C104.2 64 105.2 65 105.2 66.3V80C105.2 81.3 104.2 82.3 102.9 82.3H89.2004C87.9004 82.3 86.9004 81.3 86.9004 80V66.3Z" fill="white"/>
<path d="M43.3996 86.9004C42.0996 86.9004 41.0996 87.9004 41.0996 89.2004V102.9C41.0996 104.2 42.0996 105.2 43.3996 105.2H57.0996C58.3996 105.2 59.3996 104.2 59.3996 102.9V89.2004C59.3996 87.9004 58.3996 86.9004 57.0996 86.9004H43.3996Z" fill="white"/>
<path d="M64 89.2004C64 87.9004 65 86.9004 66.3 86.9004H80C81.3 86.9004 82.3 87.9004 82.3 89.2004V102.9C82.3 104.2 81.3 105.2 80 105.2H66.3C65 105.2 64 104.2 64 102.9V89.2004Z" fill="white"/>
<path d="M89.2004 86.9004C87.9004 86.9004 86.9004 87.9004 86.9004 89.2004V102.9C86.9004 104.2 87.9004 105.2 89.2004 105.2H102.9C104.2 105.2 105.2 104.2 105.2 102.9V89.2004C105.2 87.9004 104.2 86.9004 102.9 86.9004H89.2004Z" fill="white"/>
</svg>
