<svg width="108" height="108" viewBox="0 0 108 108" fill="none" xmlns="http://www.w3.org/2000/svg">
<circle cx="54" cy="54" r="54" fill="white"/>
<path d="M38.375 98.2187V76.6562L22.2812 88.5312C26.8125 92.75 32.2812 96.0312 38.375 98.2187Z" fill="#2A5F9E"/>
<path d="M69.625 98.2187C75.7187 96.0312 81.1875 92.75 85.7187 88.5312L69.625 76.5V98.2187Z" fill="#2A5F9E"/>
<path d="M9.78125 69.625C10.25 71.1875 10.875 72.5938 11.6563 74.1563L17.75 69.625H9.78125Z" fill="#2A5F9E"/>
<path d="M90.25 69.625L96.3437 74.1563C96.9687 72.75 97.5937 71.1875 98.2187 69.625H90.25Z" fill="#2A5F9E"/>
<path d="M40.7188 63.375H8.0625C8.53125 65.5625 9.15625 67.5938 9.78125 69.625H17.75L11.6563 74.1563C12.9063 76.8125 14.3125 79.1562 16.0312 81.5L32.125 69.625H38.375V72.75L20.0938 86.1875L22.2813 88.375L38.375 76.6563V98.2188C40.4062 99 42.4375 99.4688 44.625 99.9375V63.375H40.7188Z" fill="white"/>
<path d="M99.9375 63.375H63.375V99.9375C65.5625 99.4688 67.5938 98.8438 69.625 98.2188V76.6563L85.7188 88.375C87.9063 86.3438 89.7813 84.1563 91.6563 81.8125L74.9375 69.625H85.5625L95.0938 76.6563C95.5625 75.875 96.0313 74.9375 96.3438 74.1563L90.25 69.625H98.2188C98.8438 67.5938 99.4688 65.5625 99.9375 63.375Z" fill="white"/>
<path d="M16.0312 81.5C17.2812 83.2188 18.5312 84.7813 19.9375 86.3438L38.375 72.9062V69.7812H32.125L16.0312 81.5Z" fill="#ED4C5C"/>
<path d="M75.0938 69.625L91.8125 81.8125C92.4375 81.0312 92.9062 80.25 93.5312 79.4687C93.6875 79.3125 93.6875 79.1562 93.8438 79.1562C94.3125 78.375 94.9375 77.4375 95.4062 76.6562L85.5625 69.625H75.0938Z" fill="#ED4C5C"/>
<path d="M69.625 9.78125V31.3438L85.7187 19.4688C81.1875 15.25 75.7187 11.9688 69.625 9.78125Z" fill="#2A5F9E"/>
<path d="M38.375 9.78125C32.2812 11.9687 26.8125 15.25 22.2812 19.4687L38.375 31.5V9.78125Z" fill="#2A5F9E"/>
<path d="M98.2187 38.375C97.75 36.8125 97.125 35.4062 96.3437 33.8438L90.25 38.375H98.2187Z" fill="#2A5F9E"/>
<path d="M17.75 38.375L11.6563 33.8438C11.0313 35.4062 10.4063 36.8125 9.78125 38.375H17.75Z" fill="#2A5F9E"/>
<path d="M67.2812 44.625H99.7812C99.3125 42.4375 98.6875 40.4062 98.0625 38.375H90.0937L96.1875 33.8438C94.9375 31.1875 93.5313 28.8437 91.8125 26.5L75.875 38.375H69.625V35.25L87.9063 21.8125L85.7187 19.625L69.625 31.3438V9.78125C67.5938 9 65.5625 8.53125 63.375 8.0625V44.625H67.2812Z" fill="white"/>
<path d="M8.0625 44.625H44.625V8.0625C42.4375 8.53125 40.4062 9.15625 38.375 9.78125V31.3438L22.2813 19.625C20.0938 21.6562 18.2188 23.8438 16.3438 26.1875L33.0625 38.375H22.4375L12.9062 31.3438C12.4375 32.125 11.9688 33.0625 11.6563 33.8438L17.75 38.375H9.78125C9.15625 40.4062 8.53125 42.4375 8.0625 44.625Z" fill="white"/>
<path d="M91.9687 26.5C90.7187 24.7812 89.4687 23.2188 88.0625 21.6562L69.625 35.0938V38.2188H75.875L91.9687 26.5Z" fill="#ED4C5C"/>
<path d="M32.9062 38.375L16.3438 26.1875C15.7188 26.9688 15.25 27.75 14.625 28.5312C14.4688 28.6875 14.4688 28.8437 14.3125 28.8437C13.8438 29.625 13.2188 30.5625 12.75 31.3438L22.2812 38.375H32.9062Z" fill="#ED4C5C"/>
<path d="M99.9375 44.625H63.375V8.0625C60.4062 7.4375 57.2812 7.125 54 7.125C50.7188 7.125 47.5938 7.4375 44.625 8.0625V44.625H8.0625C7.4375 47.5938 7.125 50.7188 7.125 54C7.125 57.2812 7.4375 60.4062 8.0625 63.375H44.625V99.9375C47.5938 100.562 50.7188 100.875 54 100.875C57.2812 100.875 60.4062 100.562 63.375 99.9375V63.375H99.9375C100.562 60.4062 100.875 57.2812 100.875 54C100.875 50.7188 100.562 47.5938 99.9375 44.625Z" fill="#ED4C5C"/>
</svg>
