<svg width="108" height="108" viewBox="0 0 108 108" fill="none" xmlns="http://www.w3.org/2000/svg">
<circle cx="54" cy="54" r="54" fill="white"/>
<path d="M7.125 54C7.125 63.2188 9.78125 71.8125 14.3125 79H93.5312C98.0625 71.8125 100.719 63.2188 100.719 54C100.719 44.7812 98.0625 36.1875 93.5312 29H14.3125C9.78125 36.1875 7.125 44.7812 7.125 54Z" fill="#FFCE31"/>
<path d="M93.6875 29C85.4063 15.875 70.7188 7.125 54 7.125C37.2812 7.125 22.5938 15.875 14.3125 29H93.6875Z" fill="#ED4C5C"/>
<path d="M14.3125 79C22.5938 92.125 37.2812 100.875 54 100.875C70.7188 100.875 85.4063 92.125 93.6875 79H14.3125Z" fill="#ED4C5C"/>
<path d="M18.375 48.8438H23.375V51.6562H18.375V48.8438Z" fill="#C8B100"/>
<path d="M18.375 69.4688H23.5313V72.125H18.375V69.4688Z" fill="#C8B100"/>
<path d="M17.9062 65.0938C17.4375 65.4062 17.125 65.7188 17.125 65.875C17.125 66.0312 17.2813 66.1875 17.5938 66.3438C17.9063 66.5 18.2188 66.8125 18.0625 67.125C18.375 66.8125 18.5313 66.5 18.5313 66.1875C18.5313 65.7188 18.2187 65.25 17.9062 65.0938Z" fill="#ED4C5C"/>
<path d="M19.1562 51.6562H22.75V69.4688H19.1562V51.6562Z" fill="white"/>
<path d="M26.5 58.2188C25.7188 57.9063 24.3125 57.5937 22.75 57.5937C22.2813 57.5937 21.6563 57.5938 21.0313 57.75C18.8438 58.0625 17.125 59 17.2813 59.625L16.5 57.9062C16.3438 57.125 18.2188 56.1875 20.5625 55.7187C21.3438 55.5625 22.125 55.5625 22.75 55.5625C24.3125 55.5625 25.7188 55.7187 26.5 56.0312V58.2188Z" fill="#ED4C5C"/>
<path d="M19.1562 60.5625C18.2187 60.5625 17.4375 60.25 17.4375 59.7813C17.4375 59.4688 17.75 59 18.375 58.6875H19.3125L19.1562 60.5625Z" fill="#ED4C5C"/>
<path d="M22.75 59.1562C23.375 59.3125 23.8437 59.4687 24.1562 59.625C24.3125 59.7812 23.6875 60.4063 22.75 60.875V59.1562Z" fill="#ED4C5C"/>
<path d="M16.8125 64C16.6563 63.6875 17.75 63.0625 19.1563 62.5938C19.7813 62.4375 20.25 62.125 21.0313 61.8125C22.9063 61.0313 24.4688 59.9375 24.1563 59.625L24.4688 61.5C24.625 61.8125 23.375 62.75 21.5 63.6875C20.875 64 19.7813 64.4688 19.1563 64.625C18.0625 64.9375 17.125 65.5625 17.125 65.7188L16.8125 64Z" fill="#ED4C5C"/>
<path d="M51.9688 48.8438H56.9688V51.6562H51.9688V48.8438Z" fill="#C8B100"/>
<path d="M51.8125 69.4688H56.9688V72.125H51.8125V69.4688Z" fill="#C8B100"/>
<path d="M57.4375 65.0938C57.9063 65.4063 58.2188 65.7188 58.2188 65.875C58.2188 66.0313 58.0625 66.1875 57.75 66.3438C57.4375 66.6563 57.125 67.125 57.2812 67.2813C56.9687 66.9688 56.8125 66.6563 56.8125 66.3438C56.8125 65.7188 57.125 65.25 57.4375 65.0938Z" fill="#ED4C5C"/>
<path d="M52.5938 51.6562H56.1875V69.4688H52.5938V51.6562Z" fill="white"/>
<path d="M48.8438 58.2188C49.625 57.9063 51.0312 57.5937 52.5937 57.5937C53.0625 57.5937 53.6875 57.5938 54.3125 57.75C56.5 58.0625 58.2187 59 58.0625 59.625L58.8437 57.75C59 56.9688 57.125 56.0313 54.7812 55.5625H52.5937C51.0312 55.5625 49.625 55.7187 48.8438 56.0312V58.2188Z" fill="#ED4C5C"/>
<path d="M56.1875 60.5625C57.125 60.5625 57.9063 60.25 57.9063 59.7813C57.9063 59.4688 57.5938 59 56.9688 58.6875H56.0312L56.1875 60.5625Z" fill="#ED4C5C"/>
<path d="M52.5938 59.1562C51.9688 59.3125 51.5 59.4687 51.1875 59.625C51.0313 59.7812 51.6563 60.4063 52.5938 60.875V59.1562Z" fill="#ED4C5C"/>
<path d="M58.5313 64C58.6875 63.6875 57.5938 63.0625 56.1875 62.5938C55.5625 62.4375 55.0938 62.125 54.3125 61.8125C52.4375 61.0313 50.875 59.9375 51.1875 59.625L50.875 61.5C50.7188 61.8125 51.9688 62.75 53.8438 63.6875C54.4688 64 55.5625 64.4688 56.1875 64.625C57.2813 64.9375 58.2188 65.7188 58.0625 65.875L58.5313 64Z" fill="#ED4C5C"/>
<path d="M37.5937 38.8438C40.5625 38.8438 46.6562 39.4688 48.8438 41.6563C46.5 47.2813 42.75 44.9375 37.5937 44.9375C32.5937 44.9375 28.6875 47.2813 26.3438 41.6563C28.5312 39.4688 34.4687 38.8438 37.5937 38.8438Z" fill="#ED4C5C"/>
<path d="M45.25 45.0937C43.375 44 40.5625 43.8438 37.5937 43.8438C34.625 43.8438 31.8125 44.1562 29.9375 45.0937L30.5625 47.75C32.2812 48.2188 34.7812 48.5312 37.5937 48.5312C40.4062 48.5312 42.75 48.2188 44.625 47.75L45.25 45.0937Z" fill="#C8B100"/>
<path d="M47.9063 38.375C47.2813 37.9062 46.0313 37.4375 44.9375 37.4375C44.4688 37.4375 44 37.4375 43.5312 37.5938C43.5312 37.5938 42.5938 36.3438 40.4062 36.3438C39.625 36.3438 39 36.5 38.375 36.8125V36.6562C38.2188 36.3437 37.9062 36.0312 37.5938 36.0312C37.2812 36.0312 36.8125 36.5 36.8125 36.8125V36.9688C36.1875 36.6563 35.5625 36.5 34.7813 36.5C32.5938 36.5 31.6563 37.9063 31.6563 37.75C31.1875 37.5938 30.7187 37.5938 30.25 37.5938C23.0625 37.5938 26.6563 42.4375 26.6563 42.4375L27.4375 41.5C25.7188 39.3125 27.2812 38.0625 30.4062 38.0625C30.875 38.0625 31.1875 38.0625 31.5 38.2187C30.4063 39.7812 32.4375 41.1875 32.4375 41.1875L32.9063 40.4062C31.8125 39.625 31.6563 36.9688 34.7813 36.9688C35.5625 36.9688 36.1875 37.125 36.8125 37.5938C36.8125 37.75 36.6562 39.9375 36.5 40.25L37.75 41.3437L39 40.25C38.8438 39.7813 38.6875 37.75 38.6875 37.5938C39.1563 37.2812 39.9375 36.9688 40.7188 36.9688C44 36.9688 44 39.625 42.5938 40.4062L43.0625 41.1875C43.0625 41.1875 44.7813 39.7812 44 38.2187C44.3125 38.2187 44.7812 38.0625 45.0938 38.0625C48.8438 38.0625 49 40.875 48.0625 41.5L48.6875 42.4375C48.375 42.4375 50.0938 40.25 47.9063 38.375Z" fill="#C8B100"/>
<path d="M36.6562 35.4063C36.6562 34.9375 37.125 34.4688 37.5938 34.4688C38.2188 34.4688 38.5313 34.9375 38.5313 35.4063C38.5313 35.875 38.0625 36.3438 37.5938 36.3438C37.125 36.3438 36.6562 35.875 36.6562 35.4063Z" fill="#005BBF"/>
<path d="M37.2812 32.75V33.2188H36.8125V33.6875H37.2812V35.25H36.6562V35.7187H38.5313L38.6875 35.4063L38.5313 35.25H37.9063V33.6875H38.375V33.2188H37.9063V32.75H37.2812Z" fill="#C8B100"/>
<path d="M37.5938 48.2188C35.0938 48.2188 32.9062 47.9062 31.1875 47.4375C32.9062 46.9687 35.0938 46.6562 37.5938 46.6562C40.0938 46.6562 42.2813 46.9687 44 47.4375C42.4375 47.9062 40.0938 48.2188 37.5938 48.2188Z" fill="#ED4C5C"/>
<path d="M37.75 75.25C34.7813 75.25 31.9687 74.4688 29.4687 73.375C27.5937 72.4375 26.5 70.7188 26.5 68.6875V61.1875H49V68.6875C49 70.7188 47.75 72.5938 46.0312 73.375C43.5312 74.625 40.7188 75.25 37.75 75.25Z" fill="white"/>
<path d="M37.5938 48.6875H48.8438V61.1875H37.5938V48.6875Z" fill="white"/>
<path d="M37.75 68.6875C37.75 71.6563 35.25 74 32.125 74C29 74 26.5 71.6563 26.5 68.6875V61.1875H37.75V68.6875Z" fill="#ED4C5C"/>
<path d="M28.8438 73.0625C29.1562 73.2187 29.625 73.5312 30.25 73.6875V60.875H29L28.8438 73.0625Z" fill="#C8B100"/>
<path d="M26.3438 68.5312C26.3438 70.0937 26.9688 71.3437 27.5938 71.9687V60.875H26.3438V68.5312Z" fill="#C8B100"/>
<path d="M31.3438 74H32.5937V60.875H31.3438V74Z" fill="#C7B500"/>
<path d="M33.8438 73.6875C34.3125 73.5312 34.9375 73.2187 35.25 73.0625V60.875H34L33.8438 73.6875Z" fill="#C8B100"/>
<path d="M26.3438 48.6875H37.5938V61.1875H26.3438V48.6875Z" fill="#ED4C5C"/>
<path d="M36.5 71.9688C37.125 71.5 37.5938 70.4063 37.75 69.1563V61.0312H36.5V71.9688Z" fill="#C8B100"/>
<path d="M49 61.1875V68.6875C49 71.6563 46.5 74 43.375 74C40.25 74 37.75 71.6563 37.75 68.6875V61.1875H49Z" fill="#ED4C5C"/>
<path d="M44.9375 50.875C45.4062 51.8125 45.4062 54.1563 44 53.6875C44.3125 53.8438 44.4687 54.9375 44.9375 55.5625C45.7187 56.5 46.6562 55.7188 46.5 54.625C46.1875 52.9063 46.3437 51.8125 46.6562 50.0938C46.6562 50.25 47.4375 50.25 47.75 49.9375C47.5937 50.4063 47.4375 51.0313 47.75 51.0313C47.4375 51.5 46.6562 52.2813 46.5 52.75C46.3437 53.8438 48.0625 55.875 46.1875 56.3438C44.9375 56.6563 45.7187 57.5938 46.1875 58.0625C46.1875 58.0625 45.5625 60.0938 45.875 59.9375C44.625 60.4063 44.9375 59.3125 44.9375 59.3125C45.5625 57.4375 43.8437 57.2813 44 56.9688C42.4375 56.8125 44.1562 58.375 42.75 58.375C42.4375 58.375 41.8125 58.6875 41.8125 58.6875C40.0937 58.5313 41.0312 56.9688 41.6562 57.125C42.125 57.2813 42.5937 58.0625 42.5937 56.9688C42.5937 56.9688 41.8125 55.7188 43.8437 55.7188C43.0625 55.7188 42.5937 55.0938 42.2812 54.3125C41.9687 54.4688 41.5 55.25 39.7812 55.4063C39.7812 55.4063 39.3125 53.6875 39.7812 54C40.4062 54.3125 40.7187 54.3125 41.3437 53.6875C41.0312 53.2188 39.1562 52.5938 39.4687 51.5C39.4687 51.1875 40.4062 50.7188 40.4062 50.7188C40.25 51.5 40.7187 52.2813 41.6562 52.2813C42.9062 52.4375 42.4375 51.9688 42.5937 51.6563C42.75 51.3438 43.6875 51.8125 43.375 51.0313C43.375 50.875 42.2812 50.7188 42.5937 50.25C43.2187 49.4688 44.1562 50.0938 44.9375 50.875Z" fill="#ED4C5C"/>
<path d="M37.75 73.6875L37.4375 72.9062L37.75 71.9688L38.0625 72.9062L37.75 73.6875Z" fill="#ED4C5C"/>
<path d="M29.7813 51.3437V52.125H30.0938V52.75H29.3125V54.3125H29.7813V57.75H28.8438V59.4688H35.25V57.75H34.4688V54.3125H34.7813V52.75H34V52.125H34.4688V51.3437H32.9063V52.125H33.2188V52.75H32.4375V50.875H32.9063V50.0938H31.1875V50.875H31.6563V52.75H30.875V52.125H31.1875V51.3437H29.7813Z" fill="#C8B100"/>
<path d="M47.4375 70.5625V62.75H39.3125V70.5625L43.0625 72.2813H43.5312L47.4375 70.5625ZM43.0625 63.375V66.0313L40.4062 63.375H43.0625ZM39.7812 63.5312L42.9062 66.6562L39.7812 69.7812V63.5312ZM40.0938 70.4063L43.0625 67.4375V71.8125L40.0938 70.4063ZM43.5312 71.6563V67.2813L46.5 70.25L43.5312 71.6563ZM46.8125 69.7812L43.6875 66.6562L46.8125 63.5312V69.7812ZM43.5312 63.375H46.1875L43.5312 66.0313V63.375Z" fill="#C8B100"/>
<path d="M34 61.0312C34 58.6875 35.5625 56.9688 37.5937 56.9688C39.625 56.9688 41.1875 58.8437 41.1875 61.0312C41.1875 63.2187 39.625 65.0937 37.5937 65.0937C35.5625 65.0937 34 63.375 34 61.0312Z" fill="#ED4C5C"/>
<path d="M35.0938 61.0313C35.0938 59.3125 36.1875 58.0625 37.5938 58.0625C39 58.0625 40.0938 59.4688 40.0938 61.0313C40.0938 62.75 39 64 37.5938 64C36.3438 64.1563 35.0938 62.75 35.0938 61.0313Z" fill="#005BBF"/>
<path d="M36.5 59L35.875 60.7187L36.3438 60.875L36.0313 61.5H36.9688L36.6562 60.875L37.125 60.7187L36.5 59Z" fill="#C8B100"/>
<path d="M38.8437 59L38.2188 60.7187L38.6875 60.875L38.375 61.5H39.3125L39.1563 60.875L39.625 60.7187L38.8437 59Z" fill="#C8B100"/>
<path d="M37.75 61.0312L36.9688 62.75L37.4375 62.9063L37.2812 63.5312H38.0625L37.9063 62.9063L38.375 62.75L37.75 61.0312Z" fill="#C8B100"/>
</svg>
